<svg width="100" height="100" viewBox="0 0 100 100" fill="none" xmlns="http://www.w3.org/2000/svg">
  <rect width="100" height="100" rx="8" fill="#F3F4F6"/>
  <path d="M50 30C44.4772 30 40 34.4772 40 40V45H35C33.3431 45 32 46.3431 32 48V65C32 66.6569 33.3431 68 35 68H65C66.6569 68 68 66.6569 68 65V48C68 46.3431 66.6569 45 65 45H60V40C60 34.4772 55.5228 30 50 30ZM55 45H45V40C45 37.2386 47.2386 35 50 35C52.7614 35 55 37.2386 55 40V45Z" fill="#9CA3AF"/>
  <circle cx="50" cy="75" r="3" fill="#9CA3AF"/>
</svg>
